<?xml version="1.0" encoding="UTF-8" standalone="no"?>
<!-- Created with Inkscape (http://www.inkscape.org/) -->

<svg
   width="500"
   height="500"
   viewBox="0 0 132.29166 132.29167"
   version="1.1"
   id="svg8"
   inkscape:version="1.4.3 (0d15f75, 2025-12-25)"
   sodipodi:docname="mycred.svg"
   inkscape:export-filename="mycred.png"
   inkscape:export-xdpi="96"
   inkscape:export-ydpi="96"
   xmlns:inkscape="http://www.inkscape.org/namespaces/inkscape"
   xmlns:sodipodi="http://sodipodi.sourceforge.net/DTD/sodipodi-0.dtd"
   xmlns:xlink="http://www.w3.org/1999/xlink"
   xmlns="http://www.w3.org/2000/svg"
   xmlns:svg="http://www.w3.org/2000/svg"
   xmlns:rdf="http://www.w3.org/1999/02/22-rdf-syntax-ns#"
   xmlns:cc="http://creativecommons.org/ns#"
   xmlns:dc="http://purl.org/dc/elements/1.1/">
  <defs
     id="defs2">
    <clipPath
       id="clip0_134_208">
      <rect
         width="190.14101"
         height="135"
         fill="#ffffff"
         id="rect10"
         x="0"
         y="0" />
    </clipPath>
    <radialGradient
       id="a"
       cx="41.060001"
       cy="38.93"
       r="24.799999"
       gradientTransform="rotate(3.28,65.533819,-152.88425)"
       gradientUnits="userSpaceOnUse">
      <stop
         offset="0"
         stop-color="#fcc58a"
         id="stop1" />
      <stop
         offset="0.58"
         stop-color="#fcc289"
         id="stop2" />
      <stop
         offset="0.96"
         stop-color="#fbb986"
         id="stop3" />
      <stop
         offset="1"
         stop-color="#fbb885"
         id="stop4" />
    </radialGradient>
    <linearGradient
       id="b"
       x1="41.619999"
       y1="-0.25"
       x2="41.619999"
       y2="43.330002"
       gradientTransform="rotate(3.28,65.533819,-152.88425)"
       gradientUnits="userSpaceOnUse">
      <stop
         offset="0"
         stop-color="#574537"
         id="stop5" />
      <stop
         offset="0.58"
         stop-color="#433329"
         id="stop6" />
      <stop
         offset="1"
         stop-color="#32241d"
         id="stop7" />
    </linearGradient>
    <radialGradient
       id="c"
       cx="53.32"
       cy="36.450001"
       r="3.3900001"
       gradientTransform="rotate(3.28,65.533819,-152.88425)"
       gradientUnits="userSpaceOnUse">
      <stop
         offset="0"
         stop-color="#333"
         id="stop8" />
      <stop
         offset="0.46"
         stop-color="#313131"
         id="stop9" />
      <stop
         offset="0.7"
         stop-color="#292929"
         id="stop10" />
      <stop
         offset="0.89"
         stop-color="#1b1b1b"
         id="stop11" />
      <stop
         offset="1"
         stop-color="#101010"
         id="stop12" />
    </radialGradient>
    <radialGradient
       id="d"
       cx="-32.200001"
       cy="36.450001"
       r="3.3900001"
       gradientTransform="matrix(-1,-0.06,-0.06,1,-12.03,-4.19)"
       xlink:href="#c" />
    <radialGradient
       id="radialGradient17"
       cx="53.32"
       cy="36.450001"
       r="3.3900001"
       gradientTransform="rotate(3.28,65.533819,-152.88425)"
       gradientUnits="userSpaceOnUse">
      <stop
         offset="0"
         stop-color="#333"
         id="stop13" />
      <stop
         offset="0.46"
         stop-color="#313131"
         id="stop14" />
      <stop
         offset="0.7"
         stop-color="#292929"
         id="stop15" />
      <stop
         offset="0.89"
         stop-color="#1b1b1b"
         id="stop16" />
      <stop
         offset="1"
         stop-color="#101010"
         id="stop17" />
    </radialGradient>
    <radialGradient
       inkscape:collect="always"
       xlink:href="#c"
       id="radialGradient18"
       gradientUnits="userSpaceOnUse"
       gradientTransform="rotate(3.28,65.533819,-152.88425)"
       cx="53.32"
       cy="36.450001"
       r="3.3900001" />
  </defs>
  <sodipodi:namedview
     id="base"
     pagecolor="#ffffff"
     bordercolor="#a52828"
     borderopacity="1"
     inkscape:pageopacity="0.0"
     inkscape:pageshadow="2"
     inkscape:zoom="1.979899"
     inkscape:cx="-31.314729"
     inkscape:cy="147.22973"
     inkscape:document-units="px"
     inkscape:current-layer="layer1"
     showgrid="false"
     units="px"
     borderlayer="false"
     inkscape:pagecheckerboard="false"
     inkscape:window-width="2400"
     inkscape:window-height="1261"
     inkscape:window-x="2391"
     inkscape:window-y="-9"
     inkscape:window-maximized="1"
     showguides="true"
     inkscape:guide-bbox="true"
     inkscape:measure-start="249.821,63.0357"
     inkscape:measure-end="249.821,0"
     inkscape:showpageshadow="2"
     inkscape:deskcolor="#d1d1d1">
    <sodipodi:guide
       position="9.5882942,66.182616"
       orientation="0,1"
       id="guide859"
       inkscape:locked="false" />
    <sodipodi:guide
       position="66.145833,14.717448"
       orientation="1,0"
       id="guide863"
       inkscape:locked="false" />
    <sodipodi:guide
       position="91.281245,132.29167"
       orientation="0,1"
       id="guide865"
       inkscape:locked="false" />
    <sodipodi:guide
       position="4.943e-007,86.758659"
       orientation="1,0"
       id="guide867"
       inkscape:locked="false" />
  </sodipodi:namedview>
  <metadata
     id="metadata5">
    <rdf:RDF>
      <cc:Work
         rdf:about="">
        <dc:format>image/svg+xml</dc:format>
        <dc:type
           rdf:resource="http://purl.org/dc/dcmitype/StillImage" />
      </cc:Work>
    </rdf:RDF>
  </metadata>
  <g
     inkscape:label="Capa 1"
     inkscape:groupmode="layer"
     id="layer1"
     transform="translate(0,-164.70832)">
    <path
       style="opacity:1;fill:#ffffff;fill-opacity:1;fill-rule:nonzero;stroke:none;stroke-width:0.26458332;stroke-linecap:butt;stroke-linejoin:miter;stroke-miterlimit:1.41420996;stroke-dasharray:none;stroke-opacity:1;paint-order:markers stroke fill"
       d="M 0,164.70832 V 296.99998 H 132.29167 V 164.70832 Z"
       id="rect815"
       inkscape:connector-curvature="0" />
    <g
       id="g22"
       transform="matrix(1.5707629,0,0,1.5707629,15.881314,180.56362)">
      <path
         class="b"
         d="M 55.17,16.77 A 3.89,3.89 0 0 0 51.5,12.66 L 11.7,10.38 A 3.89,3.89 0 0 0 7.59,14.05 C 7.59,14.05 7.25,19 6.12,48 5.74,57.57 7.5,61.7 9.56,61.82 L 47.76,64 c 2.07,0.12 4.28,-3.79 5,-13.34 2.18,-28.93 2.41,-33.89 2.41,-33.89 z"
         id="path12"
         style="fill:url(#a)" />
      <path
         class="c"
         d="m 53.37,42.35 c 1.72,-23.06 1.8,-25.58 1.8,-25.58 A 3.89,3.89 0 0 0 51.5,12.66 L 11.7,10.38 a 3.89,3.89 0 0 0 -4.11,3.67 c 0,0 -0.19,2.51 -1.12,25.66 0.17,0.21 0.27,0.31 0.27,0.31 1.11,-14.12 3.19,-19.75 3.19,-19.75 0,0 1.44,1.27 6.49,1.81 10.81,1.15 34.15,-3.87 34.15,-3.87 3.56,10.52 2.53,24.47 2.53,24.47 z"
         id="path13"
         style="fill:#ce985e" />
      <path
         class="d"
         d="m 6.74,40 c 0,0 -4.95,-5.12 -4,-16.84 C 3.69,11.44 6.87,7.07 6.87,7.07 L 7.46,9.57 9.65,6.17 10.21,8.7 12.6,6 12.53,8.11 c 0,0 32.12,-14.74 48.88,-4.49 0,0 -6.49,1.16 -7.29,2.81 0,0 2.7,-0.66 4.14,0.23 a 4.39,4.39 0 0 0 -1.68,5.49 c 1.38,3.73 5.1,21 -3.5,30.53 0,0 1.33,-15.08 -2.23,-25.6 0,0 -24,4.55 -34.83,3.4 -5,-0.54 -6.56,-2.36 -6.56,-2.36 A 195.55,195.55 0 0 0 6.74,40 Z"
         id="path14"
         style="fill:url(#b)" />
      <path
         class="c"
         d="m 46.32,35.93 a 3.83,3.83 0 1 1 -3.61,-4 3.84,3.84 0 0 1 3.61,4 z"
         id="path15"
         style="fill:#ce985e" />
      <path
         class="e"
         d="m 45.89,35.64 a 3.39,3.39 0 1 1 -3.19,-3.58 3.39,3.39 0 0 1 3.19,3.58 z"
         id="path16"
         style="fill:url(#radialGradient18)" />
      <path
         class="c"
         d="m 14.2,34.1 a 3.83,3.83 0 1 0 4,-3.61 3.83,3.83 0 0 0 -4,3.61 z"
         id="path17"
         style="fill:#ce985e" />
      <circle
         class="f"
         cx="18.040001"
         cy="34.040001"
         r="3.3900001"
         id="circle17"
         style="fill:url(#d)" />
      <path
         class="g"
         d="m 20.58,32.56 a 1.41,1.41 0 0 1 -0.51,1.89 1.4,1.4 0 0 1 -1.8,-0.78 1.29,1.29 0 1 1 2.31,-1.11 z"
         id="path18"
         style="fill:#ffffff" />
      <path
         class="g"
         d="M 45,34 A 1.29,1.29 0 1 1 42.7,35.11 1.29,1.29 0 1 1 45,34 Z"
         id="path19"
         style="fill:#ffffff" />
      <path
         class="h"
         d="m 16.13,8.18 c 0,0 24,-11.59 42.27,-5 0,-0.01 -23.4,-1.68 -42.27,5 z"
         id="path20"
         style="fill:#836f67" />
      <circle
         class="i"
         cx="44.509998"
         cy="51.049999"
         r="2.6500001"
         id="circle20"
         style="fill:#fab383" />
      <path
         class="i"
         d="m 17.69,49.52 a 2.65,2.65 0 1 1 -2.5,-2.8 2.66,2.66 0 0 1 2.5,2.8 z"
         id="path21"
         style="fill:#fab383" />
      <path
         class="j"
         d="m 38.85,50.42 a 0.64,0.64 0 0 1 -0.62,0.69 68.91,68.91 0 0 1 -16,-0.91 0.65,0.65 0 0 1 -0.54,-0.76 0.66,0.66 0 0 1 0.76,-0.53 67.43,67.43 0 0 0 15.67,0.9 0.66,0.66 0 0 1 0.73,0.61 z"
         id="path22"
         style="fill:#856848" />
    </g>
  </g>
</svg>
