<?xml version="1.0" encoding="UTF-8" standalone="no"?>
<!-- Created with Inkscape (http://www.inkscape.org/) -->

<svg
   width="500"
   height="500"
   viewBox="0 0 132.29166 132.29167"
   version="1.1"
   id="svg8"
   inkscape:version="1.4.3 (0d15f75, 2025-12-25)"
   sodipodi:docname="masteriyo-icon.svg"
   xmlns:inkscape="http://www.inkscape.org/namespaces/inkscape"
   xmlns:sodipodi="http://sodipodi.sourceforge.net/DTD/sodipodi-0.dtd"
   xmlns="http://www.w3.org/2000/svg"
   xmlns:svg="http://www.w3.org/2000/svg"
   xmlns:rdf="http://www.w3.org/1999/02/22-rdf-syntax-ns#"
   xmlns:cc="http://creativecommons.org/ns#"
   xmlns:dc="http://purl.org/dc/elements/1.1/">
  <defs
     id="defs2" />
  <sodipodi:namedview
     id="base"
     pagecolor="#ffffff"
     bordercolor="#a52828"
     borderopacity="1"
     inkscape:pageopacity="0.0"
     inkscape:pageshadow="2"
     inkscape:zoom="1.4"
     inkscape:cx="273.21429"
     inkscape:cy="228.21429"
     inkscape:document-units="px"
     inkscape:current-layer="layer1"
     showgrid="true"
     units="px"
     borderlayer="false"
     inkscape:pagecheckerboard="false"
     inkscape:window-width="2400"
     inkscape:window-height="1261"
     inkscape:window-x="2391"
     inkscape:window-y="-9"
     inkscape:window-maximized="1"
     showguides="true"
     inkscape:guide-bbox="true"
     inkscape:measure-start="249.821,63.0357"
     inkscape:measure-end="249.821,0"
     inkscape:showpageshadow="2"
     inkscape:deskcolor="#d1d1d1">
    <sodipodi:guide
       position="9.5882942,66.182616"
       orientation="0,1"
       id="guide859"
       inkscape:locked="false" />
    <sodipodi:guide
       position="66.145833,14.717448"
       orientation="1,0"
       id="guide863"
       inkscape:locked="false" />
    <sodipodi:guide
       position="91.281245,132.29167"
       orientation="0,1"
       id="guide865"
       inkscape:locked="false" />
    <sodipodi:guide
       position="4.943e-007,86.758659"
       orientation="1,0"
       id="guide867"
       inkscape:locked="false" />
    <inkscape:grid
       id="grid1"
       units="px"
       originx="0"
       originy="0"
       spacingx="0.26458332"
       spacingy="0.26458334"
       empcolor="#0099e5"
       empopacity="0.30196078"
       color="#0099e5"
       opacity="0.14901961"
       empspacing="5"
       enabled="true"
       visible="true" />
  </sodipodi:namedview>
  <metadata
     id="metadata5">
    <rdf:RDF>
      <cc:Work
         rdf:about="">
        <dc:format>image/svg+xml</dc:format>
        <dc:type
           rdf:resource="http://purl.org/dc/dcmitype/StillImage" />
      </cc:Work>
    </rdf:RDF>
  </metadata>
  <g
     inkscape:label="Capa 1"
     inkscape:groupmode="layer"
     id="layer1"
     transform="translate(0,-164.70832)">
    <path
       style="opacity:1;fill:#ffffff;fill-opacity:1;fill-rule:nonzero;stroke:none;stroke-width:0.264583;stroke-linecap:butt;stroke-linejoin:miter;stroke-miterlimit:1.41421;stroke-dasharray:none;stroke-opacity:1;paint-order:markers stroke fill"
       d="M 0.62886438,165.36372 V 297.65538 H 132.92054 V 165.36372 Z"
       id="rect815"
       inkscape:connector-curvature="0" />
    <g
       id="g6"
       transform="matrix(1.0054167,0,0,1.0054167,15.88311,180.63757)">
      <path
         fill="#787dff"
         d="m 22.206,11.439 18.338,20.39 a 16.398,16.398 0 0 1 4.505,11.288 V 90.772 L 22.188,74.807 Z"
         opacity="0.3"
         id="path1" />
      <path
         fill="#787dff"
         d="m 7.964,8.594 30.22,21.52 a 16.066,16.066 0 0 1 6.846,12.184 v 48.44 L 7.958,71.202 Z"
         opacity="0.5"
         id="path2" />
      <path
         fill="#787dff"
         d="M 45.048,91.241 11.647,80.552 A 16.577,16.577 0 0 1 0,65.76 V 16.468 L 36.287,30.48 a 13.482,13.482 0 0 1 8.737,11.678 v 0.76 z"
         id="path3" />
      <path
         fill="#fd739c"
         d="M 77.794,11.439 59.456,31.829 A 16.398,16.398 0 0 0 54.952,43.086 V 90.74 L 77.812,74.775 77.794,11.438 Z"
         opacity="0.3"
         id="path4" />
      <path
         fill="#fd739c"
         d="m 92.037,8.594 -30.22,21.52 a 16.064,16.064 0 0 0 -6.846,12.184 v 48.44 L 92.043,71.202 Z"
         opacity="0.5"
         id="path5" />
      <path
         fill="#fd739c"
         d="M 54.952,91.241 88.347,80.552 C 94.884,78.457 99.667,72.612 100,65.76 V 16.468 L 63.725,30.48 a 13.489,13.489 0 0 0 -8.742,11.678 v 0.76 z"
         id="path6-0" />
    </g>
  </g>
</svg>
