<svg width="69" height="69" viewBox="0 0 69 69" fill="none" xmlns="http://www.w3.org/2000/svg">
<mask id="mask0_290_9593" style="mask-type:luminance" maskUnits="userSpaceOnUse" x="0" y="0" width="69" height="69">
<path d="M45.235 0H23.6945C10.6084 0 0 10.6192 0 23.7188V45.2812C0 58.3808 10.6084 69 23.6945 69H45.235C58.3211 69 68.9295 58.3808 68.9295 45.2812V23.7188C68.9295 10.6192 58.3211 0 45.235 0Z" fill="white"/>
</mask>
<g mask="url(#mask0_290_9593)">
<path d="M45.235 0H23.6945C10.6084 0 0 10.6192 0 23.7188V45.2812C0 58.3808 10.6084 69 23.6945 69H45.235C58.3211 69 68.9295 58.3808 68.9295 45.2812V23.7188C68.9295 10.6192 58.3211 0 45.235 0Z" fill="#5E25F8"/>
<path d="M21.5359 12.9375C27.484 12.9376 32.3061 17.7645 32.3061 23.7188V55.8456C27.3907 54.8462 23.6913 50.4966 23.6913 45.2812V21.5625H19.3832V45.2812C19.3832 50.4971 15.6825 54.8475 10.7663 55.8463V56.0625H10.7656V23.7188C10.7656 17.7644 15.5876 12.9375 21.5359 12.9375Z" fill="white"/>
<path d="M34.4655 56.0625C40.4137 56.0624 45.2358 51.2355 45.2358 45.2812V13.1544C40.3204 14.1538 36.621 18.5034 36.621 23.7188V47.4375H32.3129V23.7188C32.3129 18.5029 28.6121 14.1525 23.696 13.1537V12.9375L23.6953 45.2812C23.6953 51.2356 28.5173 56.0625 34.4655 56.0625Z" fill="white"/>
<path d="M71.0795 47.4375H58.156V23.7188C58.156 18.503 54.4556 14.1528 49.5398 13.1537V12.9375L49.5391 45.2812C49.5391 51.2356 54.361 56.0625 60.3093 56.0625H71.0795V47.4375Z" fill="white"/>
<path d="M8.61399 56.0625C14.5622 56.0624 19.3842 51.2355 19.3842 45.2812V13.1544C14.4685 14.1536 10.7687 18.5031 10.7687 23.7188V47.4375H-2.15555V12.9375L-2.15625 56.0625H8.61399Z" fill="white"/>
<path d="M47.3874 12.9375C53.3356 12.9376 58.1577 17.7645 58.1577 23.7188V55.8456C53.2423 54.8462 49.5429 50.4966 49.5429 45.2812V21.5625H45.2348V45.2812C45.2348 50.4971 41.534 54.8475 36.6179 55.8463V56.0625L36.6172 23.7188C36.6172 17.7644 41.4392 12.9375 47.3874 12.9375Z" fill="white"/>
</g>
</svg>
