<?xml version="1.0" encoding="UTF-8" standalone="no"?>
<!-- Created with Inkscape (http://www.inkscape.org/) -->

<svg
   xmlns:dc="http://purl.org/dc/elements/1.1/"
   xmlns:cc="http://creativecommons.org/ns#"
   xmlns:rdf="http://www.w3.org/1999/02/22-rdf-syntax-ns#"
   xmlns:svg="http://www.w3.org/2000/svg"
   xmlns="http://www.w3.org/2000/svg"
   xmlns:sodipodi="http://sodipodi.sourceforge.net/DTD/sodipodi-0.dtd"
   xmlns:inkscape="http://www.inkscape.org/namespaces/inkscape"
   width="500"
   height="500"
   viewBox="0 0 132.29166 132.29167"
   version="1.1"
   id="svg8"
   inkscape:version="0.92.4 (5da689c313, 2019-01-14)"
   sodipodi:docname="asgaros-forum-icon.svg">
  <defs
     id="defs2" />
  <sodipodi:namedview
     id="base"
     pagecolor="#ffffff"
     bordercolor="#a52828"
     borderopacity="1"
     inkscape:pageopacity="0.0"
     inkscape:pageshadow="2"
     inkscape:zoom="1.4"
     inkscape:cx="126.03379"
     inkscape:cy="203.77405"
     inkscape:document-units="px"
     inkscape:current-layer="layer1"
     showgrid="false"
     units="px"
     borderlayer="false"
     inkscape:pagecheckerboard="false"
     inkscape:window-width="1920"
     inkscape:window-height="1002"
     inkscape:window-x="-8"
     inkscape:window-y="-8"
     inkscape:window-maximized="1"
     showguides="true"
     inkscape:guide-bbox="true"
     inkscape:measure-start="249.821,63.0357"
     inkscape:measure-end="249.821,0">
    <sodipodi:guide
       position="9.5882942,66.182616"
       orientation="0,1"
       id="guide859"
       inkscape:locked="false" />
    <sodipodi:guide
       position="66.145833,14.717448"
       orientation="1,0"
       id="guide863"
       inkscape:locked="false" />
    <sodipodi:guide
       position="91.281245,132.29167"
       orientation="0,1"
       id="guide865"
       inkscape:locked="false" />
    <sodipodi:guide
       position="4.943e-007,86.758659"
       orientation="1,0"
       id="guide867"
       inkscape:locked="false" />
  </sodipodi:namedview>
  <metadata
     id="metadata5">
    <rdf:RDF>
      <cc:Work
         rdf:about="">
        <dc:format>image/svg+xml</dc:format>
        <dc:type
           rdf:resource="http://purl.org/dc/dcmitype/StillImage" />
        <dc:title />
      </cc:Work>
    </rdf:RDF>
  </metadata>
  <g
     inkscape:label="Capa 1"
     inkscape:groupmode="layer"
     id="layer1"
     transform="translate(0,-164.70832)">
    <path
       style="opacity:1;fill:#ffffff;fill-opacity:1;fill-rule:nonzero;stroke:none;stroke-width:0.26458332;stroke-linecap:butt;stroke-linejoin:miter;stroke-miterlimit:1.41420996;stroke-dasharray:none;stroke-opacity:1;paint-order:markers stroke fill"
       d="M 0,164.70832 V 296.99998 H 132.29167 V 164.70832 Z"
       id="rect815"
       inkscape:connector-curvature="0" />
    <g
       transform="matrix(3.9853613,0,0,3.9853613,-248.55911,-146.96819)"
       id="g847"
       style="stroke-width:0.25091827">
      <path
         inkscape:connector-curvature="0"
         sodipodi:nodetypes="ssscsssssssssssss"
         id="path1"
         d="m 68.899207,102.67836 c 1.187312,-1.58405 1.532849,-2.02888 0.443655,-2.60435 -7.146366,-3.775772 -0.754724,-11.388295 7.57753,-9.955472 9.887481,1.700262 8.488367,11.361902 -1.648282,11.382282 -1.594059,0.009 -1.369465,-0.0214 -1.633136,0.0513 -0.455446,0.12561 -0.546362,0.25532 -1.019349,0.58409 -0.293517,0.20401 -1.173341,0.75979 -1.634915,0.87318 -3.227154,0.79273 -3.179325,0.91398 -2.591514,0.25983 0.08679,-0.0966 0.398194,-0.44701 0.488929,-0.56807 z m 2.459088,-1.01502 c 0.491698,-0.23923 0.91125,-0.6258 1.21044,-0.90995 0.830009,-0.788283 0.196662,-0.58846 2.406802,-0.57235 7.735274,0.0564 10.274905,-6.613394 3.32141,-8.649905 -7.7475,-2.269056 -14.852248,4.450052 -8.175904,7.608551 1.691929,0.800431 1.582008,0.63168 0.621382,2.112824 -0.81719,1.25999 -0.686846,1.04465 0.61587,0.41083 z"
         style="fill:#0073a8;fill-opacity:1;stroke-width:0.25091827" />
      <path
         inkscape:connector-curvature="0"
         sodipodi:nodetypes="ssssssssssss"
         id="path1-7"
         d="m 87.612316,99.264193 c -1.691922,-0.563974 -1.920039,-0.770329 -2.961947,-1.761581 -0.220492,-0.209772 -0.06128,-0.08827 0.195901,-1.271019 0.698211,-3.210948 -3.934529,-6.502269 -8.221697,-6.530868 -1.361373,-0.0091 -0.229243,-0.03453 -1.917692,-0.01241 1.658485,-2.996153 5.230001,-3.673654 8.348839,-3.787309 8.959696,-0.111632 10.727173,7.227652 5.52188,10.191086 -0.929571,0.529215 -0.846077,0.510741 -0.730979,0.718429 0.292183,0.527229 0.691736,0.873958 1.897583,2.247225 0.41348,0.470888 1.061821,0.797738 0.0312,0.707635 -0.571366,-0.04995 -0.758656,-0.03304 -2.16309,-0.501187 z"
         style="fill:#2b87cc;fill-opacity:1;stroke-width:0.25091827" />
    </g>
  </g>
</svg>
