<?xml version="1.0" encoding="UTF-8" standalone="no"?>
<!-- Created with Inkscape (http://www.inkscape.org/) -->

<svg
   width="500"
   height="500"
   viewBox="0 0 132.29166 132.29167"
   version="1.1"
   id="svg8"
   inkscape:version="1.3.2 (091e20e, 2023-11-25, custom)"
   sodipodi:docname="icon-paid-members-subscription.svg"
   inkscape:export-filename="icon-paid-members-subscription.png"
   inkscape:export-xdpi="96"
   inkscape:export-ydpi="96"
   xmlns:inkscape="http://www.inkscape.org/namespaces/inkscape"
   xmlns:sodipodi="http://sodipodi.sourceforge.net/DTD/sodipodi-0.dtd"
   xmlns:xlink="http://www.w3.org/1999/xlink"
   xmlns="http://www.w3.org/2000/svg"
   xmlns:svg="http://www.w3.org/2000/svg"
   xmlns:rdf="http://www.w3.org/1999/02/22-rdf-syntax-ns#"
   xmlns:cc="http://creativecommons.org/ns#"
   xmlns:dc="http://purl.org/dc/elements/1.1/">
  <defs
     id="defs2">
    <linearGradient
       inkscape:collect="always"
       xlink:href="#linearGradient1"
       id="linearGradient2"
       x1="125.66836"
       y1="221.14613"
       x2="111.70521"
       y2="138.49936"
       gradientUnits="userSpaceOnUse"
       gradientTransform="matrix(2.2273536,0,0,2.2273536,-167.9263,-100.00094)" />
    <linearGradient
       id="linearGradient1"
       inkscape:collect="always">
      <stop
         style="stop-color:#000000;stop-opacity:1;"
         offset="0"
         id="stop1" />
      <stop
         style="stop-color:#12895a;stop-opacity:1;"
         offset="1"
         id="stop2" />
    </linearGradient>
  </defs>
  <sodipodi:namedview
     id="base"
     pagecolor="#ffffff"
     bordercolor="#a52828"
     borderopacity="1"
     inkscape:pageopacity="0.0"
     inkscape:pageshadow="2"
     inkscape:zoom="1.4"
     inkscape:cx="281.42857"
     inkscape:cy="203.21429"
     inkscape:document-units="px"
     inkscape:current-layer="layer1"
     showgrid="false"
     units="px"
     borderlayer="false"
     inkscape:pagecheckerboard="false"
     inkscape:window-width="1920"
     inkscape:window-height="1001"
     inkscape:window-x="-9"
     inkscape:window-y="-9"
     inkscape:window-maximized="1"
     showguides="true"
     inkscape:guide-bbox="true"
     inkscape:measure-start="249.821,63.0357"
     inkscape:measure-end="249.821,0"
     inkscape:showpageshadow="2"
     inkscape:deskcolor="#d1d1d1">
    <sodipodi:guide
       position="9.5882942,66.182616"
       orientation="0,1"
       id="guide859"
       inkscape:locked="false" />
    <sodipodi:guide
       position="66.145833,14.717448"
       orientation="1,0"
       id="guide863"
       inkscape:locked="false" />
    <sodipodi:guide
       position="91.281245,132.29167"
       orientation="0,1"
       id="guide865"
       inkscape:locked="false" />
    <sodipodi:guide
       position="4.943e-007,86.758659"
       orientation="1,0"
       id="guide867"
       inkscape:locked="false" />
  </sodipodi:namedview>
  <metadata
     id="metadata5">
    <rdf:RDF>
      <cc:Work
         rdf:about="">
        <dc:format>image/svg+xml</dc:format>
        <dc:type
           rdf:resource="http://purl.org/dc/dcmitype/StillImage" />
      </cc:Work>
    </rdf:RDF>
  </metadata>
  <g
     inkscape:label="Capa 1"
     inkscape:groupmode="layer"
     id="layer1"
     transform="translate(0,-164.70832)">
    <path
       style="fill:#ffffff;fill-opacity:1;fill-rule:nonzero;stroke:none;stroke-width:0.264583;stroke-linecap:butt;stroke-linejoin:miter;stroke-miterlimit:1.41421;stroke-dasharray:none;stroke-opacity:1;paint-order:markers stroke fill"
       d="M -9.000001e-7,164.70832 V 296.99998 H 132.29167 V 164.70832 Z"
       id="rect815"
       inkscape:connector-curvature="0" />
    <path
       id="path1"
       style="display:inline;fill:url(#linearGradient2);fill-opacity:1;stroke-width:2.22735"
       d="m 65.84178,180.63883 c -4.622985,0.0482 -9.234654,0.52063 -12.341213,1.40311 -22.421699,6.36918 -37.421857,25.51761 -37.421857,47.77064 0,4.60341 0.143662,5.294 1.325968,6.36974 0.729279,0.66347 1.723769,1.3508 2.209956,1.52853 0.486187,0.17774 0.958275,0.34502 1.049731,0.37063 0.09132,0.0256 1.088462,-0.33864 2.214567,-0.80914 2.536978,-1.06006 3.218238,-2.73878 3.218238,-7.92823 0,-8.11808 3.621743,-17.60473 9.285259,-24.32213 5.299007,-6.2852 11.000008,-10.15165 18.707475,-12.68535 4.060379,-1.33476 5.736729,-1.55196 12.081079,-1.5631 6.515878,-0.0117 7.910891,0.17463 12.081076,1.60569 2.592997,0.88987 6.504921,2.67479 8.693629,3.96754 3.756386,2.21872 10.460367,8.09739 10.458138,9.17015 -5.79e-4,0.27117 -1.19395,1.24628 -2.651953,2.16737 -2.61282,1.65071 -3.29252,3.18094 -2.18577,4.92177 0.586574,0.92262 17.139327,7.83979 18.762717,7.84071 0.68959,3.7e-4 1.54395,-0.34797 1.89804,-0.77464 0.95092,-1.14578 2.55057,-19.7342 1.8163,-21.10621 -0.82201,-1.53579 -3.07913,-1.37857 -5.91737,0.41323 -2.39918,1.51451 -2.39877,1.51481 -5.5997,-2.02233 -6.282967,-6.94288 -15.97641,-12.76245 -25.274031,-15.17271 -3.152597,-0.81724 -7.787184,-1.19344 -12.410279,-1.14527 z m -0.780376,16.93722 c -2.173074,0.0374 -4.286297,0.27401 -6.218951,0.7286 -12.291182,2.89104 -21.680769,12.05585 -24.776792,24.18287 -1.045008,4.09325 -1.101204,11.85377 -0.11271,15.60317 0.67785,2.57147 0.772402,2.64924 5.728598,4.71456 2.771629,1.15501 5.780028,2.58569 6.685112,3.18027 2.216216,1.45582 4.109246,5.83072 3.73389,8.62917 -0.159922,1.19316 0.04945,2.97979 0.466165,3.97101 0.626621,1.49025 1.405705,2.01099 4.498185,3.00992 2.056916,0.66441 4.270036,1.32713 4.918287,1.47215 0.648248,0.14495 3.16772,0.29069 5.598542,0.32342 14.358569,0.19379 27.243743,-8.8367 31.842894,-22.31705 1.677977,-4.9183 2.233969,-13.58588 1.055477,-16.4538 -0.699924,-1.70332 -1.500815,-2.29725 -5.163453,-3.83058 -3.096466,-1.29632 -4.857256,-2.4619 -6.163688,-4.08036 -1.745955,-2.1628 -1.828968,-2.50996 -1.828968,-7.63125 0,-5.36481 -2.4e-5,-5.36439 -2.357299,-6.97515 -4.328929,-2.95799 -11.38612,-4.63887 -17.905206,-4.52695 z m 0.843699,11.23278 c 0.376132,0.0313 0.803384,0.17595 1.392719,0.42011 1.13869,0.47167 2.039677,1.43022 2.473544,2.63008 0.423353,1.17073 1.483884,2.32042 2.794661,3.02832 2.444877,1.32037 4.802039,4.52626 4.802039,6.53203 0,1.7335 -1.947507,3.7431 -3.626843,3.7431 -0.725114,0 -2.201673,-1.01052 -3.445004,-2.35729 -1.672231,-1.81126 -2.615603,-2.35727 -4.073451,-2.35727 -2.467016,0 -4.177045,0.94361 -4.177045,2.30548 0,1.5102 0.865171,2.05835 5.598564,3.54744 5.735705,1.80449 8.397925,3.68485 9.841185,6.94754 2.184209,4.93779 0.214716,9.96999 -4.785915,12.22494 -1.562044,0.70439 -2.55384,1.59202 -2.778558,2.48736 -0.19222,0.7655 -0.908537,1.78314 -1.591866,2.26175 -2.502321,1.75269 -5.224837,0.78448 -6.267284,-2.22837 -0.467211,-1.35034 -1.387085,-2.26732 -3.137673,-3.12731 -4.285718,-2.10532 -6.378584,-6.60499 -4.051579,-8.71091 1.812642,-1.64042 4.138401,-1.2187 6.299513,1.14066 1.661718,1.8142 2.318764,2.11996 4.621335,2.15471 2.924471,0.0444 4.502774,-0.85323 4.502774,-2.56102 0,-1.42678 -1.832511,-2.53822 -6.187855,-3.75347 -6.585929,-1.83754 -10.306366,-5.41607 -10.310822,-9.91831 -0.0044,-3.70911 2.195125,-6.81306 6.291472,-8.8824 1.069443,-0.54027 1.954593,-1.49341 2.062619,-2.22031 0.104013,-0.70033 0.900697,-1.80288 1.771415,-2.45052 0.868178,-0.64575 1.355144,-0.90882 1.982055,-0.85634 z m 45.748307,19.31866 c -3.43526,0.0296 -5.40864,2.23181 -5.40864,6.03592 0,3.37309 -2.20447,10.86368 -4.51427,15.33848 -3.142077,6.08678 -11.287734,14.11374 -17.290584,17.0385 -6.259377,3.04976 -11.037207,4.16854 -17.974278,4.21042 -7.272488,0.0438 -10.861333,-0.7787 -17.734879,-4.06655 -4.710409,-2.25305 -11.662335,-7.40876 -10.847191,-8.04445 0.162152,-0.12636 1.437044,-0.96256 2.833817,-1.85775 2.226041,-1.42668 2.517088,-1.85722 2.357276,-3.49103 -0.176853,-1.80887 -0.442173,-1.97378 -9.014769,-5.56747 -4.858283,-2.03668 -9.250622,-3.70284 -9.759462,-3.70284 -2.375406,0 -2.786954,1.2286 -3.653328,10.90246 -0.473112,5.28263 -0.632948,10.0122 -0.363728,10.75509 0.626533,1.72892 2.799049,1.74004 5.772345,0.0288 2.254927,-1.29777 2.255618,-1.29811 5.421289,1.56654 8.43677,7.63434 17.213903,11.66347 29.390089,13.49222 6.387872,0.95938 16.297525,-0.38366 23.596985,-3.19868 17.187578,-6.62823 30.404908,-23.9373 31.603478,-41.38711 0.29962,-4.36207 0.20693,-4.98667 -0.95766,-6.4503 -0.99459,-1.25006 -1.78484,-1.61559 -3.45649,-1.60222 z" />
  </g>
</svg>
