<?xml version="1.0" encoding="UTF-8" standalone="no"?>
<!-- Created with Inkscape (http://www.inkscape.org/) -->

<svg
   width="500"
   height="500"
   viewBox="0 0 132.29166 132.29167"
   version="1.1"
   id="svg8"
   inkscape:version="1.4 (86a8ad7, 2024-10-11)"
   sodipodi:docname="aweber-dashicon.svg"
   xmlns:inkscape="http://www.inkscape.org/namespaces/inkscape"
   xmlns:sodipodi="http://sodipodi.sourceforge.net/DTD/sodipodi-0.dtd"
   xmlns="http://www.w3.org/2000/svg"
   xmlns:svg="http://www.w3.org/2000/svg"
   xmlns:rdf="http://www.w3.org/1999/02/22-rdf-syntax-ns#"
   xmlns:cc="http://creativecommons.org/ns#"
   xmlns:dc="http://purl.org/dc/elements/1.1/">
  <defs
     id="defs2" />
  <sodipodi:namedview
     id="base"
     pagecolor="#ffffff"
     bordercolor="#a52828"
     borderopacity="1"
     inkscape:pageopacity="0.0"
     inkscape:pageshadow="2"
     inkscape:zoom="0.7"
     inkscape:cx="22.142857"
     inkscape:cy="306.42857"
     inkscape:document-units="px"
     inkscape:current-layer="layer1"
     showgrid="false"
     units="px"
     borderlayer="false"
     inkscape:pagecheckerboard="false"
     inkscape:window-width="1920"
     inkscape:window-height="1017"
     inkscape:window-x="-8"
     inkscape:window-y="-8"
     inkscape:window-maximized="1"
     showguides="true"
     inkscape:guide-bbox="true"
     inkscape:measure-start="249.821,63.0357"
     inkscape:measure-end="249.821,0"
     inkscape:showpageshadow="2"
     inkscape:deskcolor="#d1d1d1">
    <sodipodi:guide
       position="9.5882942,66.182616"
       orientation="0,1"
       id="guide859"
       inkscape:locked="false" />
    <sodipodi:guide
       position="66.145833,14.717448"
       orientation="1,0"
       id="guide863"
       inkscape:locked="false" />
    <sodipodi:guide
       position="91.281245,132.29167"
       orientation="0,1"
       id="guide865"
       inkscape:locked="false" />
    <sodipodi:guide
       position="4.943e-007,86.758659"
       orientation="1,0"
       id="guide867"
       inkscape:locked="false" />
  </sodipodi:namedview>
  <metadata
     id="metadata5">
    <rdf:RDF>
      <cc:Work
         rdf:about="">
        <dc:format>image/svg+xml</dc:format>
        <dc:type
           rdf:resource="http://purl.org/dc/dcmitype/StillImage" />
        <dc:title />
      </cc:Work>
    </rdf:RDF>
  </metadata>
  <g
     inkscape:label="Capa 1"
     inkscape:groupmode="layer"
     id="layer1"
     transform="translate(0,-164.70832)">
    <g
       transform="matrix(2.84016,0,0,2.84016,13.756202,176.25847)"
       class="aw-brandmark"
       id="g18"
       style="fill:#000000;fill-opacity:1;stroke-width:0.09315792"
       inkscape:export-xdpi="126.3158"
       inkscape:export-ydpi="126.3158">
      <path
         inkscape:connector-curvature="0"
         d="M 20.8,2 C 20,2 19.2,2.4 18.7,3 15.1,7.6 12.9,13 12,18.4 c -0.9,4.7 -0.5,10.7 1.1,16.3 0.3,1.1 0.9,2 5.4,2 v 0 0 c 12.2,0 17.7,-4.8 17.7,-17.3 v 0 C 36.2,7.1 31,2 20.8,2 m -0.3,33.1 c -0.7,0.4 -1.7,0.1 -2,-0.6 0,0 0,0 0,0 v 0 c -2.5,-4.7 -3.3,-10 -2.3,-15.3 1,-5.3 3.6,-10 7.6,-13.6 v 0 c 0,0 0,0 0,0 0.6,-0.5 1.6,-0.5 2.1,0.1 0.6,0.6 0.5,1.5 -0.1,2.1 0,0 0,0 0,0 v 0 c -3.4,3 -5.8,7.1 -6.6,11.9 -0.9,4.7 0,9.4 2,13.4 v 0 c 0,0 0,0 0,0.1 0.3,0.6 0,1.5 -0.7,1.9 m 9.2,-22.2 c 0,0 0,0 0,0 -2.5,2 -4.3,4.6 -4.9,7.7 -0.6,3.1 0,6.2 1.6,8.8 v 0 c 0,0 0,0 0,0.1 0.3,0.4 0.1,1 -0.4,1.2 -0.5,0.2 -1.1,0.1 -1.4,-0.4 0,0 0,0 0,0 v 0 c -1.8,-2.9 -2.5,-6.4 -1.8,-9.9 0.7,-3.5 2.7,-6.5 5.5,-8.8 v 0 c 0,0 0,0 0.1,-0.1 0.4,-0.3 1.1,-0.3 1.4,0.1 0.4,0.4 0.3,1 -0.1,1.3 M 6.2,32.5 c 0.1,0.6 -0.6,1 -1.1,0.6 C 2.4,30.7 0.8,27.6 0.8,19.3 v 0 C 0.8,8.6 5,4 10.7,2.5 c 0.6,-0.2 1,0.5 0.7,0.9 -2.6,4.3 -4.4,9 -5.3,14 -0.9,5 -0.8,10.2 0.1,15.1 z"
         id="path16"
         style="fill:#000000;fill-opacity:1;stroke-width:0.09315792" />
    </g>
  </g>
</svg>
